<svg width="44" height="37" viewBox="0 0 44 37" fill="none" xmlns="http://www.w3.org/2000/svg">
<path d="M35.3958 12.2052V19.8476C35.3958 24.4182 32.2277 26.377 27.4754 26.377H11.6526C10.8425 26.377 10.0685 26.3176 9.34846 26.1841C8.89844 26.1247 8.46641 26.0208 8.07039 25.9021C5.37026 25.0711 3.73218 23.142 3.73218 19.8476V12.2052C3.73218 7.63467 6.90032 5.67592 11.6526 5.67592H27.4754C31.5076 5.67592 34.4058 7.08566 35.1798 10.3058C35.3058 10.8994 35.3958 11.5078 35.3958 12.2052Z" stroke="white" stroke-width="2" stroke-miterlimit="10" stroke-linecap="round" stroke-linejoin="round"/>
<path d="M40.7982 16.6573V24.2996C40.7982 28.8702 37.6301 30.829 32.8778 30.829H17.055C15.7229 30.829 14.5169 30.6806 13.4728 30.3541C11.3307 29.7012 9.87261 28.3508 9.35059 26.1842C10.0706 26.3178 10.8447 26.3771 11.6547 26.3771H27.4776C32.2298 26.3771 35.398 24.4183 35.398 19.8478V12.2054C35.398 11.508 35.326 10.8848 35.182 10.306C38.6021 10.8996 40.7982 12.888 40.7982 16.6573Z" stroke="white" stroke-width="2" stroke-miterlimit="10" stroke-linecap="round" stroke-linejoin="round"/>
<path d="M19.552 19.9513C22.1766 19.9513 24.3043 18.1973 24.3043 16.0337C24.3043 13.87 22.1766 12.116 19.552 12.116C16.9275 12.116 14.7998 13.87 14.7998 16.0337C14.7998 18.1973 16.9275 19.9513 19.552 19.9513Z" stroke="white" stroke-width="2" stroke-miterlimit="10" stroke-linecap="round" stroke-linejoin="round"/>
<path d="M9.2583 12.7692V19.2987" stroke="white" stroke-width="2" stroke-miterlimit="10" stroke-linecap="round" stroke-linejoin="round"/>
<path d="M29.8547 12.7696V19.299" stroke="white" stroke-width="2" stroke-miterlimit="10" stroke-linecap="round" stroke-linejoin="round"/>
</svg>
