<svg width="44" height="36" viewBox="0 0 44 36" fill="none" xmlns="http://www.w3.org/2000/svg">
<path d="M12.9769 34.0987C8.69272 34.0987 5.18262 31.5314 5.18262 28.3706V25.3434C5.18262 24.735 5.79465 24.2304 6.53268 24.2304C7.27072 24.2304 7.88275 24.735 7.88275 25.3434C7.88275 27.1983 10.0608 28.5932 12.9769 28.5932C15.8931 28.5932 18.0712 27.1983 18.0712 25.3434C18.0712 24.735 18.6832 24.2304 19.4213 24.2304C20.1593 24.2304 20.7713 24.735 20.7713 25.3434V28.3706C20.7713 31.5314 17.2791 34.0987 12.9769 34.0987ZM8.35069 29.8249C9.14272 31.0417 10.9248 31.8727 12.9769 31.8727C15.029 31.8727 16.8111 31.0269 17.6032 29.8249C16.3251 30.463 14.741 30.834 12.9769 30.834C11.2128 30.834 9.62875 30.463 8.35069 29.8249Z" fill="white"/>
<path d="M12.9769 26.7528C10.0248 26.7528 7.37871 25.6399 6.06464 23.874C5.48861 23.1023 5.18262 22.1971 5.18262 21.2771C5.18262 19.7189 6.01064 18.2646 7.52272 17.1814C10.4389 15.0742 15.4611 15.0743 18.3952 17.1667C19.9073 18.2648 20.7533 19.7189 20.7533 21.2771C20.7533 22.1971 20.4473 23.1023 19.8713 23.874C18.5752 25.6399 15.9291 26.7528 12.9769 26.7528ZM12.9769 17.7751C11.5729 17.7751 10.2768 18.1608 9.30479 18.8582C8.38674 19.5112 7.88275 20.3718 7.88275 21.2771C7.88275 21.7964 8.04469 22.2714 8.3687 22.7166C9.19674 23.8444 10.9608 24.5419 12.9769 24.5419C14.993 24.5419 16.7571 23.8444 17.5671 22.7315C17.8912 22.3011 18.0532 21.8114 18.0532 21.292C18.0532 20.3868 17.5492 19.526 16.6312 18.8582C15.6771 18.1608 14.381 17.7751 12.9769 17.7751Z" fill="white"/>
<path d="M12.9769 30.8346C8.53071 30.8346 5.18262 28.4751 5.18262 25.3588V21.2779C5.18262 18.1171 8.67472 15.5499 12.9769 15.5499C15.011 15.5499 16.9552 16.1286 18.4132 17.1674C19.9253 18.2655 20.7713 19.7198 20.7713 21.2779V25.3588C20.7713 28.4751 17.4232 30.8346 12.9769 30.8346ZM12.9769 17.7758C10.1688 17.7758 7.88275 19.3488 7.88275 21.2779V25.3588C7.88275 27.2137 10.0608 28.6087 12.9769 28.6087C15.8931 28.6087 18.0712 27.2137 18.0712 25.3588V21.2779C18.0712 20.3727 17.5672 19.512 16.6492 18.8443C15.6771 18.1616 14.381 17.7758 12.9769 17.7758Z" fill="white"/>
<path d="M34.3442 22.3022C31.626 22.3022 29.3219 20.6401 29.1059 18.5033C28.9619 17.2716 29.5019 16.0696 30.582 15.194C31.482 14.4224 32.7601 13.9921 34.1102 13.9921H37.8724C39.6544 14.0366 41.0225 15.194 41.0225 16.6186V19.6756C41.0225 21.1002 39.6544 22.2576 37.9264 22.3022H34.3442ZM37.8184 16.218H34.1282C33.4981 16.218 32.9221 16.4109 32.5081 16.767C31.9861 17.1825 31.734 17.7464 31.8061 18.3103C31.8961 19.2897 33.0481 20.0762 34.3442 20.0762H37.8724C38.1064 20.0762 38.3224 19.8982 38.3224 19.6756V16.6186C38.3224 16.396 38.1064 16.2328 37.8184 16.218Z" fill="white"/>
<path d="M28.8722 31.8733H24.372C23.634 31.8733 23.022 31.3688 23.022 30.7604C23.022 30.152 23.634 29.6474 24.372 29.6474H28.8722C33.5165 29.6474 36.5226 27.1692 36.5226 23.3406V22.3019H34.3445C31.6264 22.3019 29.3223 20.6398 29.1063 18.503C28.9623 17.2713 29.5025 16.0693 30.5825 15.1937C31.4826 14.4221 32.7604 13.9918 34.1105 13.9918H36.5046V12.953C36.5046 9.48054 34.0387 7.09135 30.0425 6.70553C29.6105 6.64617 29.2323 6.6462 28.8542 6.6462H12.6535C12.2215 6.6462 11.8074 6.67586 11.3934 6.72038C7.43322 7.13589 5.00311 9.51022 5.00311 12.953V15.9209C5.00311 16.5293 4.39108 17.0338 3.65305 17.0338C2.91501 17.0338 2.30298 16.5293 2.30298 15.9209V12.953C2.30298 8.38242 5.72322 5.07323 11.0335 4.52416C11.5195 4.46481 12.0775 4.42027 12.6535 4.42027H28.8542C29.2863 4.42027 29.8443 4.43511 30.4203 4.50931C35.7306 5.01385 39.2048 8.3379 39.2048 12.953V15.1047C39.2048 15.7131 38.5927 16.2177 37.8547 16.2177H34.1105C33.4805 16.2177 32.9046 16.4106 32.4906 16.7667C31.9686 17.1822 31.7164 17.7461 31.7884 18.31C31.8784 19.2894 33.0306 20.0759 34.3267 20.0759H37.8727C38.6107 20.0759 39.2228 20.5805 39.2228 21.1889V23.3406C39.2228 28.4454 35.0646 31.8733 28.8722 31.8733Z" fill="white"/>
</svg>
