<svg width="32" height="33" viewBox="0 0 32 33" fill="none" xmlns="http://www.w3.org/2000/svg">
<path d="M12.5713 20.625C12.4214 20.6266 12.2728 20.6 12.135 20.5467C11.9973 20.4934 11.8734 20.4147 11.7713 20.3156C11.3142 19.9031 11.3142 19.2638 11.7713 18.8513L26.6285 5.46563C27.0856 5.05313 27.7942 5.05313 28.2513 5.46563C28.7085 5.87813 28.7085 6.5175 28.2513 6.93L13.3942 20.3362C13.1656 20.5425 12.8685 20.6456 12.5942 20.6456L12.5713 20.625Z" fill="white"/>
<path d="M21.7142 20.625H12.5713C11.9313 20.625 11.4285 20.1713 11.4285 19.5938V11.3438C11.4285 10.7662 11.9313 10.3125 12.5713 10.3125C13.2113 10.3125 13.7142 10.7662 13.7142 11.3438V18.5625H21.7142C22.3542 18.5625 22.857 19.0162 22.857 19.5938C22.857 20.1713 22.3542 20.625 21.7142 20.625Z" fill="white"/>
<path d="M26.2856 28.875H5.71422C3.81707 28.875 2.28564 27.4931 2.28564 25.7812V7.21875C2.28564 5.50688 3.81707 4.125 5.71422 4.125H17.1428C17.7828 4.125 18.2856 4.57875 18.2856 5.15625C18.2856 5.73375 17.7828 6.1875 17.1428 6.1875H5.71422C5.07422 6.1875 4.57136 6.64125 4.57136 7.21875V25.7812C4.57136 26.3587 5.07422 26.8125 5.71422 26.8125H26.2856C26.9256 26.8125 27.4285 26.3587 27.4285 25.7812V15.4688C27.4285 14.8912 27.9314 14.4375 28.5714 14.4375C29.2114 14.4375 29.7142 14.8912 29.7142 15.4688V25.7812C29.7142 27.4931 28.1828 28.875 26.2856 28.875Z" fill="white"/>
</svg>
