<svg width="280" height="42" viewBox="0 0 280 42" fill="none" xmlns="http://www.w3.org/2000/svg">
<line x1="4.68586e-08" y1="20.5" x2="280" y2="20.5" stroke="#E7E7EE"/>
<ellipse cx="140" cy="21" rx="22" ry="20.5224" fill="#5C1991"/>
<path d="M141.23 24.4981C141.23 24.7513 141.318 24.9976 141.482 25.1998C141.645 25.4021 141.874 25.5492 142.135 25.619C142.396 25.6888 142.674 25.6775 142.928 25.5868C143.181 25.496 143.396 25.3308 143.54 25.1161L146.9 21.983C147.016 21.8746 147.108 21.746 147.171 21.6045C147.234 21.463 147.266 21.3113 147.266 21.1582C147.266 21.005 147.233 20.8534 147.171 20.7119C147.108 20.5704 147.015 20.4419 146.899 20.3336C146.783 20.2253 146.645 20.1395 146.494 20.0809C146.342 20.0223 146.179 19.9922 146.015 19.9923C145.851 19.9923 145.688 20.0226 145.537 20.0812C145.385 20.1399 145.247 20.2258 145.131 20.3342L143.731 21.6401V12.8377C143.731 12.5284 143.6 12.2318 143.365 12.0132C143.131 11.7945 142.813 11.6716 142.481 11.6716C142.15 11.6716 141.832 11.7945 141.597 12.0132C141.363 12.2318 141.231 12.5284 141.231 12.8377V24.4398V24.4981H141.23Z" fill="white"/>
<path d="M138.77 17.5019C138.77 17.2487 138.682 17.0024 138.518 16.8002C138.355 16.598 138.126 16.4508 137.865 16.381C137.604 16.3112 137.326 16.3225 137.072 16.4133C136.819 16.504 136.604 16.6692 136.46 16.8839L133.101 20.0171C132.982 20.1246 132.887 20.2533 132.821 20.3955C132.756 20.5378 132.721 20.6908 132.72 20.8456C132.718 21.0005 132.75 21.154 132.813 21.2973C132.876 21.4406 132.968 21.5708 133.086 21.6803C133.203 21.7898 133.343 21.8764 133.496 21.935C133.65 21.9936 133.815 22.0231 133.981 22.0218C134.147 22.0204 134.311 21.9883 134.463 21.9272C134.616 21.866 134.754 21.7772 134.869 21.6658L136.27 20.3599V29.1623C136.27 29.4716 136.402 29.7682 136.636 29.9869C136.871 30.2055 137.189 30.3284 137.52 30.3284C137.852 30.3284 138.17 30.2055 138.404 29.9869C138.638 29.7682 138.77 29.4716 138.77 29.1623V17.5602V17.5019Z" fill="white"/>
</svg>
