<svg width="33" height="26" viewBox="0 0 33 26" fill="none" xmlns="http://www.w3.org/2000/svg">
<path d="M16.422 22.3117C13.2751 22.3117 10.1283 21.9256 7.14348 21.1536C6.00899 20.851 5.14462 20.2354 4.76646 19.432C4.37479 18.6286 4.50985 17.7418 5.13111 16.9488L6.68428 14.956C7.00842 14.5387 7.30554 13.704 7.30554 13.2136V10.1983C7.30554 6.31699 11.3978 3.15561 16.422 3.15561C21.4461 3.15561 25.5384 6.31699 25.5384 10.1983V13.2136C25.5384 13.6935 25.8355 14.5386 26.1597 14.9664L27.6993 16.9488C28.2801 17.7 28.3881 18.6078 27.9965 19.432C27.6048 20.2563 26.7539 20.8823 25.687 21.1536C22.7157 21.9256 19.5688 22.3117 16.422 22.3117ZM16.422 4.72065C12.5188 4.72065 9.33141 7.17255 9.33141 10.1983V13.2136C9.33141 13.9752 8.92624 15.1021 8.42653 15.7594L6.87336 17.7522C6.57623 18.1382 6.4952 18.5452 6.67077 18.8895C6.83284 19.2442 7.23802 19.5155 7.79175 19.6616C13.4372 21.1223 19.4203 21.1223 25.0657 19.6616C25.5519 19.5363 25.9301 19.2546 26.1056 18.879C26.2812 18.5034 26.2407 18.0965 25.9706 17.7522L24.4174 15.7594C23.9042 15.0812 23.5125 13.9648 23.5125 13.2031V10.1983C23.5125 7.17255 20.3387 4.72065 16.422 4.72065Z" fill="white"/>
<path d="M18.9335 5.00212C18.839 5.00212 18.7445 4.99168 18.6499 4.97082C18.2582 4.88735 17.8801 4.82475 17.5154 4.78301C16.3674 4.66824 15.26 4.73084 14.22 4.97082C13.8419 5.06472 13.4367 4.97082 13.1801 4.75171C12.9235 4.5326 12.8425 4.2196 12.991 3.93789C13.5448 2.84236 14.8953 2.12244 16.435 2.12244C17.9746 2.12244 19.3252 2.83193 19.8789 3.93789C20.014 4.2196 19.9465 4.5326 19.6899 4.75171C19.4873 4.91865 19.2037 5.00212 18.9335 5.00212Z" fill="white"/>
<path d="M16.4211 24.6902C15.084 24.6902 13.7874 24.2729 12.8421 23.5425C11.8967 22.8122 11.3564 21.8106 11.3564 20.7776H13.3823C13.3823 21.3932 13.7064 21.9984 14.2737 22.4366C14.8409 22.8748 15.6242 23.1252 16.4211 23.1252C18.0958 23.1252 19.4599 22.0714 19.4599 20.7776H21.4857C21.4857 22.9374 19.2168 24.6902 16.4211 24.6902Z" fill="white"/>
</svg>
