<svg width="28" height="26" viewBox="0 0 28 26" fill="none" xmlns="http://www.w3.org/2000/svg">
<path d="M18.7273 17C18.7273 15.7371 15.0235 14.7143 10.4545 14.7143M18.7273 17C18.7273 18.2629 15.0235 19.2857 10.4545 19.2857C5.88564 19.2857 2.18182 18.2629 2.18182 17M18.7273 17V22.6423C18.7273 23.944 15.0235 25 10.4545 25C5.88564 25 2.18182 23.9451 2.18182 22.6423V17M18.7273 17C23.2465 17 27 15.872 27 14.7143V3.28571M10.4545 14.7143C5.88564 14.7143 2.18182 15.7371 2.18182 17M10.4545 14.7143C5.23327 14.7143 1 13.5863 1 12.4286V6.71429M10.4545 4.42857C5.23327 4.42857 1 5.45143 1 6.71429M1 6.71429C1 7.97714 5.23327 9 10.4545 9C10.4545 10.1577 14.299 11.2857 18.8183 11.2857C23.3364 11.2857 27 10.1577 27 9M27 3.28571C27 2.02286 23.3364 1 18.8183 1C14.299 1 10.6365 2.02286 10.6365 3.28571M27 3.28571C27 4.54857 23.3364 5.57143 18.8183 5.57143C14.3002 5.57143 10.6365 4.54857 10.6365 3.28571M10.6365 3.28571V14.904" stroke="white" stroke-width="2"/>
</svg>
