<svg width="28" height="28" viewBox="0 0 28 28" fill="none" xmlns="http://www.w3.org/2000/svg">
<path d="M18.3749 14C17.2506 14 16.1634 13.498 15.3124 12.5869C14.485 11.6982 13.9797 10.5131 13.8906 9.25094C13.7954 7.90453 14.2061 6.66641 15.0467 5.76406C15.8872 4.86172 17.0624 4.375 18.3749 4.375C19.6781 4.375 20.8567 4.87047 21.6945 5.77062C22.5405 6.67953 22.9523 7.91547 22.8571 9.25039C22.7658 10.5142 22.261 11.6987 21.4352 12.5863C20.5865 13.498 19.4999 14 18.3749 14ZM25.5844 23.625H11.166C10.9342 23.6262 10.7052 23.5743 10.4966 23.4731C10.288 23.372 10.1055 23.2243 9.96291 23.0415C9.8117 22.8433 9.70728 22.6135 9.65746 22.3693C9.60765 22.125 9.61373 21.8727 9.67525 21.6311C10.1357 19.7821 11.2765 18.2487 12.974 17.197C14.4806 16.2641 16.3985 15.75 18.3749 15.75C20.3902 15.75 22.2577 16.2422 23.7731 17.1746C25.4745 18.2208 26.6169 19.763 27.0752 21.6344C27.136 21.8761 27.1414 22.1285 27.091 22.3726C27.0406 22.6167 26.9357 22.8463 26.7842 23.0442C26.6418 23.2262 26.4597 23.3731 26.2517 23.4738C26.0437 23.5745 25.8154 23.6262 25.5844 23.625ZM8.039 14.2187C6.11455 14.2187 4.42252 12.4294 4.26556 10.2304C4.18791 9.10383 4.539 8.06203 5.24994 7.29805C5.95322 6.54172 6.94525 6.125 8.039 6.125C9.13275 6.125 10.1171 6.54391 10.8242 7.30461C11.5406 8.07461 11.8906 9.11422 11.8086 10.2315C11.6517 12.4299 9.96017 14.2187 8.039 14.2187ZM11.6298 15.9387C10.6678 15.4684 9.41931 15.2332 8.03955 15.2332C6.42845 15.2332 4.86384 15.6532 3.63338 16.4155C2.2383 17.2812 1.29986 18.5418 0.920875 20.0637C0.865414 20.2827 0.860168 20.5113 0.905531 20.7325C0.950893 20.9537 1.04569 21.1618 1.18283 21.3412C1.31296 21.5083 1.47966 21.6433 1.67013 21.7358C1.8606 21.8283 2.06975 21.876 2.2815 21.875H8.35181C8.45427 21.875 8.55347 21.839 8.63212 21.7734C8.71078 21.7077 8.76389 21.6165 8.7822 21.5157C8.78822 21.4812 8.79588 21.4468 8.80463 21.4129C9.26837 19.5502 10.355 17.9763 11.9606 16.829C12.0197 16.7864 12.0672 16.7298 12.0988 16.6642C12.1305 16.5987 12.1453 16.5262 12.1418 16.4535C12.1384 16.3808 12.1169 16.3101 12.0792 16.2478C12.0416 16.1855 11.989 16.1336 11.9262 16.0967C11.8403 16.0464 11.7419 15.9934 11.6298 15.9387Z" fill="white"/>
</svg>
