<svg width="28" height="28" viewBox="0 0 28 28" fill="none" xmlns="http://www.w3.org/2000/svg">
<path d="M14 24.5C11.3167 24.5 8.97867 23.6106 6.986 21.8318C4.99333 20.0531 3.85078 17.8313 3.55833 15.1667H5.95C6.22222 17.1889 7.12172 18.8611 8.6485 20.1833C10.1753 21.5056 11.9591 22.1667 14 22.1667C16.275 22.1667 18.2051 21.3745 19.7902 19.7902C21.3753 18.2058 22.1674 16.2758 22.1667 14C22.1667 11.725 21.3745 9.79533 19.7902 8.211C18.2058 6.62667 16.2758 5.83411 14 5.83333C12.6583 5.83333 11.4042 6.14444 10.2375 6.76667C9.07083 7.38889 8.08889 8.24444 7.29167 9.33333H10.5V11.6667H3.5V4.66667H5.83333V7.40833C6.825 6.16389 8.03561 5.20139 9.46517 4.52083C10.8947 3.84028 12.4063 3.5 14 3.5C15.4583 3.5 16.8245 3.77728 18.0985 4.33183C19.3725 4.88639 20.4808 5.63461 21.4235 6.5765C22.3662 7.51994 23.1148 8.62828 23.6693 9.9015C24.2239 11.1747 24.5008 12.5409 24.5 14C24.5 15.4583 24.2231 16.8245 23.6693 18.0985C23.1156 19.3725 22.3669 20.4808 21.4235 21.4235C20.4801 22.3662 19.3717 23.1148 18.0985 23.6693C16.8253 24.2239 15.4591 24.5008 14 24.5ZM17.2667 18.9L12.8333 14.4667V8.16667H15.1667V13.5333L18.9 17.2667L17.2667 18.9Z" fill="white"/>
</svg>
