<svg width="21" height="20" viewBox="0 0 21 20" fill="none" xmlns="http://www.w3.org/2000/svg">
<path d="M8.2644 6.17613H8.2744M13.2644 6.17613H13.2744M16.7644 1.17613C17.5601 1.17613 18.3231 1.4922 18.8857 2.05481C19.4483 2.61742 19.7644 3.38048 19.7644 4.17613V12.1761C19.7644 12.9718 19.4483 13.7348 18.8857 14.2975C18.3231 14.8601 17.5601 15.1761 16.7644 15.1761H11.7644L6.7644 18.1761V15.1761H4.7644C3.96875 15.1761 3.20569 14.8601 2.64308 14.2975C2.08047 13.7348 1.7644 12.9718 1.7644 12.1761V4.17613C1.7644 3.38048 2.08047 2.61742 2.64308 2.05481C3.20569 1.4922 3.96875 1.17613 4.7644 1.17613H16.7644Z" stroke="white" stroke-width="2" stroke-linecap="round" stroke-linejoin="round"/>
<path d="M8.2644 10.1761C8.59028 10.5087 8.97925 10.773 9.40853 10.9533C9.83781 11.1337 10.2988 11.2266 10.7644 11.2266C11.23 11.2266 11.691 11.1337 12.1203 10.9533C12.5496 10.773 12.9385 10.5087 13.2644 10.1761" stroke="white" stroke-width="2" stroke-linecap="round" stroke-linejoin="round"/>
</svg>
