<svg width="25" height="25" viewBox="0 0 25 25" fill="none" xmlns="http://www.w3.org/2000/svg">
<path d="M9.0344 23.6308H4.9944C2.9844 23.6308 2.0144 22.7008 2.0144 20.7808V4.98075C2.0144 3.06075 2.9944 2.13075 4.9944 2.13075H9.0344C11.0444 2.13075 12.0144 3.06075 12.0144 4.98075V20.7808C12.0144 22.7008 11.0344 23.6308 9.0344 23.6308ZM4.9944 3.63075C3.7244 3.63075 3.5144 3.97075 3.5144 4.98075V20.7808C3.5144 21.7908 3.7244 22.1308 4.9944 22.1308H9.0344C10.3044 22.1308 10.5144 21.7908 10.5144 20.7808V4.98075C10.5144 3.97075 10.3044 3.63075 9.0344 3.63075H4.9944Z" fill="white"/>
<path d="M20.5344 14.6308H16.4944C14.4844 14.6308 13.5144 13.7008 13.5144 11.7808V4.98075C13.5144 3.06075 14.4944 2.13075 16.4944 2.13075H20.5344C22.5444 2.13075 23.5144 3.06075 23.5144 4.98075V11.7808C23.5144 13.7008 22.5344 14.6308 20.5344 14.6308ZM16.4944 3.63075C15.2244 3.63075 15.0144 3.97075 15.0144 4.98075V11.7808C15.0144 12.7908 15.2244 13.1308 16.4944 13.1308H20.5344C21.8044 13.1308 22.0144 12.7908 22.0144 11.7808V4.98075C22.0144 3.97075 21.8044 3.63075 20.5344 3.63075H16.4944Z" fill="white"/>
<path d="M20.5344 23.6308H16.4944C14.4844 23.6308 13.5144 22.7008 13.5144 20.7808V18.9808C13.5144 17.0608 14.4944 16.1308 16.4944 16.1308H20.5344C22.5444 16.1308 23.5144 17.0608 23.5144 18.9808V20.7808C23.5144 22.7008 22.5344 23.6308 20.5344 23.6308ZM16.4944 17.6308C15.2244 17.6308 15.0144 17.9708 15.0144 18.9808V20.7808C15.0144 21.7908 15.2244 22.1308 16.4944 22.1308H20.5344C21.8044 22.1308 22.0144 21.7908 22.0144 20.7808V18.9808C22.0144 17.9708 21.8044 17.6308 20.5344 17.6308H16.4944Z" fill="white"/>
</svg>
