<svg width="25" height="25" viewBox="0 0 25 25" fill="none" xmlns="http://www.w3.org/2000/svg">
<path d="M13.8144 16.4264H11.9344C10.6044 16.4264 9.5144 15.3064 9.5144 13.9264C9.5144 13.5164 9.8544 13.1764 10.2644 13.1764C10.6744 13.1764 11.0144 13.5164 11.0144 13.9264C11.0144 14.4764 11.4244 14.9264 11.9344 14.9264H13.8144C14.2044 14.9264 14.5144 14.5764 14.5144 14.1464C14.5144 13.6064 14.3644 13.5264 14.0244 13.4064L11.0144 12.3564C10.3744 12.1364 9.5144 11.6664 9.5144 10.1964C9.5144 8.94638 10.5044 7.91638 11.7144 7.91638H13.5944C14.9244 7.91638 16.0144 9.03638 16.0144 10.4164C16.0144 10.8264 15.6744 11.1664 15.2644 11.1664C14.8544 11.1664 14.5144 10.8264 14.5144 10.4164C14.5144 9.86638 14.1044 9.41638 13.5944 9.41638H11.7144C11.3244 9.41638 11.0144 9.76638 11.0144 10.1964C11.0144 10.7364 11.1644 10.8164 11.5044 10.9364L14.5144 11.9864C15.1544 12.2064 16.0144 12.6764 16.0144 14.1464C16.0144 15.4064 15.0244 16.4264 13.8144 16.4264Z" fill="white"/>
<path d="M12.7644 17.4261C12.3544 17.4261 12.0144 17.0861 12.0144 16.6761V7.67615C12.0144 7.26615 12.3544 6.92615 12.7644 6.92615C13.1744 6.92615 13.5144 7.26615 13.5144 7.67615V16.6761C13.5144 17.0861 13.1744 17.4261 12.7644 17.4261Z" fill="white"/>
<path d="M12.7644 22.9261C6.8344 22.9261 2.0144 18.1061 2.0144 12.1761C2.0144 6.24615 6.8344 1.42615 12.7644 1.42615C13.1744 1.42615 13.5144 1.76615 13.5144 2.17615C13.5144 2.58615 13.1744 2.92615 12.7644 2.92615C7.6644 2.92615 3.5144 7.07615 3.5144 12.1761C3.5144 17.2761 7.6644 21.4261 12.7644 21.4261C17.8644 21.4261 22.0144 17.2761 22.0144 12.1761C22.0144 11.7661 22.3544 11.4261 22.7644 11.4261C23.1744 11.4261 23.5144 11.7661 23.5144 12.1761C23.5144 18.1061 18.6944 22.9261 12.7644 22.9261Z" fill="white"/>
<path d="M21.7644 7.92615H17.7644C17.3544 7.92615 17.0144 7.58615 17.0144 7.17615V3.17615C17.0144 2.76615 17.3544 2.42615 17.7644 2.42615C18.1744 2.42615 18.5144 2.76615 18.5144 3.17615V6.42615H21.7644C22.1744 6.42615 22.5144 6.76615 22.5144 7.17615C22.5144 7.58615 22.1744 7.92615 21.7644 7.92615Z" fill="white"/>
<path d="M17.7639 7.92658C17.5739 7.92658 17.3839 7.85658 17.2339 7.70658C16.9439 7.41658 16.9439 6.93658 17.2339 6.64658L22.2339 1.64658C22.5239 1.35658 23.0039 1.35658 23.2939 1.64658C23.5839 1.93658 23.5839 2.41658 23.2939 2.70658L18.2939 7.70658C18.1439 7.85658 17.9539 7.92658 17.7639 7.92658Z" fill="white"/>
</svg>
