<svg width="25" height="25" viewBox="0 0 25 25" fill="none" xmlns="http://www.w3.org/2000/svg">
<path d="M12.7644 12.9261C9.5944 12.9261 7.0144 10.3461 7.0144 7.17615C7.0144 4.00615 9.5944 1.42615 12.7644 1.42615C15.9344 1.42615 18.5144 4.00615 18.5144 7.17615C18.5144 10.3461 15.9344 12.9261 12.7644 12.9261ZM12.7644 2.92615C10.4244 2.92615 8.5144 4.83615 8.5144 7.17615C8.5144 9.51615 10.4244 11.4261 12.7644 11.4261C15.1044 11.4261 17.0144 9.51615 17.0144 7.17615C17.0144 4.83615 15.1044 2.92615 12.7644 2.92615Z" fill="white"/>
<path d="M21.3545 22.9261C20.9445 22.9261 20.6045 22.5861 20.6045 22.1761C20.6045 18.7261 17.0846 15.9261 12.7646 15.9261C8.44455 15.9261 4.92456 18.7261 4.92456 22.1761C4.92456 22.5861 4.58456 22.9261 4.17456 22.9261C3.76456 22.9261 3.42456 22.5861 3.42456 22.1761C3.42456 17.9061 7.61455 14.4261 12.7646 14.4261C17.9146 14.4261 22.1045 17.9061 22.1045 22.1761C22.1045 22.5861 21.7645 22.9261 21.3545 22.9261Z" fill="white"/>
</svg>
