<svg width="25" height="25" viewBox="0 0 25 25" fill="none" xmlns="http://www.w3.org/2000/svg">
<path d="M12.1641 22.1619C6.51406 22.1619 1.91406 17.5619 1.91406 11.9119C1.91406 6.26192 6.51406 1.66192 12.1641 1.66192C17.8141 1.66192 22.4141 6.26192 22.4141 11.9119C22.4141 17.5619 17.8141 22.1619 12.1641 22.1619ZM12.1641 3.16192C7.33406 3.16192 3.41406 7.09192 3.41406 11.9119C3.41406 16.7319 7.33406 20.6619 12.1641 20.6619C16.9941 20.6619 20.9141 16.7319 20.9141 11.9119C20.9141 7.09192 16.9941 3.16192 12.1641 3.16192Z" fill="white"/>
<path d="M22.6645 23.1618C22.4745 23.1618 22.2845 23.0918 22.1345 22.9418L20.1345 20.9418C19.8445 20.6518 19.8445 20.1718 20.1345 19.8818C20.4245 19.5918 20.9045 19.5918 21.1945 19.8818L23.1945 21.8818C23.4845 22.1718 23.4845 22.6518 23.1945 22.9418C23.0445 23.0918 22.8545 23.1618 22.6645 23.1618Z" fill="white"/>
</svg>
