<svg width="28" height="28" viewBox="0 0 28 28" fill="none" xmlns="http://www.w3.org/2000/svg">
<path d="M10.1692 28L9.61194 23.52C9.31012 23.4033 9.02594 23.2633 8.7594 23.1C8.49287 22.9367 8.23144 22.7617 7.97513 22.575L3.83085 24.325L0 17.675L3.58706 14.945C3.56385 14.7817 3.55224 14.6244 3.55224 14.4732V13.5282C3.55224 13.3761 3.56385 13.2183 3.58706 13.055L0 10.325L3.83085 3.675L7.97513 5.425C8.23052 5.23833 8.49751 5.06333 8.77612 4.9C9.05473 4.73667 9.33333 4.59667 9.61194 4.48L10.1692 0H17.8308L18.3881 4.48C18.6899 4.59667 18.9745 4.73667 19.242 4.9C19.5095 5.06333 19.7704 5.23833 20.0249 5.425L24.1692 3.675L28 10.325L24.4129 13.055C24.4362 13.2183 24.4478 13.3761 24.4478 13.5282V14.4718C24.4478 14.6239 24.4245 14.7817 24.3781 14.945L27.9652 17.675L24.1343 24.325L20.0249 22.575C19.7695 22.7617 19.5025 22.9367 19.2239 23.1C18.9453 23.2633 18.6667 23.4033 18.3881 23.52L17.8308 28H10.1692ZM14.0697 18.9C15.4163 18.9 16.5655 18.4217 17.5174 17.465C18.4693 16.5083 18.9453 15.3533 18.9453 14C18.9453 12.6467 18.4693 11.4917 17.5174 10.535C16.5655 9.57833 15.4163 9.1 14.0697 9.1C12.6998 9.1 11.5445 9.57833 10.6038 10.535C9.66302 11.4917 9.1931 12.6467 9.19403 14C9.19403 15.3533 9.66441 16.5083 10.6052 17.465C11.5459 18.4217 12.7008 18.9 14.0697 18.9Z" fill="white"/>
</svg>
