<svg width="32" height="31" viewBox="0 0 32 31" fill="none" xmlns="http://www.w3.org/2000/svg">
<path d="M0 4.65002H32V23.25H30.8C30.8 20.4755 28.464 18.2125 25.6 18.2125C23.504 18.2125 21.728 19.437 20.896 21.173C20.496 21.018 20.064 20.925 19.6 20.925C18.032 20.925 16.72 21.9015 16.224 23.25H0V4.65002ZM13.392 9.47052C13.296 9.70302 13.232 9.95102 13.216 10.199C13.2 10.447 13.2 10.7105 13.232 10.974L13.264 11.098C13.28 11.191 13.296 11.315 13.344 11.4545C13.376 11.6095 13.44 11.7645 13.504 11.935C13.552 12.1055 13.648 12.276 13.744 12.4465C13.856 12.6325 13.984 12.7875 14.112 12.927C14.24 13.0665 14.4 13.1905 14.608 13.2835C14.8 13.3765 15.008 13.423 15.248 13.423C15.472 13.423 15.68 13.3765 15.872 13.2835C16.064 13.1905 16.224 13.0665 16.352 12.9425C16.496 12.803 16.608 12.6325 16.704 12.4465C16.816 12.2605 16.896 12.09 16.96 11.935C17.024 11.78 17.072 11.625 17.104 11.4545C17.152 11.284 17.168 11.1755 17.184 11.1135C17.2 11.0515 17.2 11.005 17.2 10.974C17.28 10.5245 17.248 10.106 17.136 9.70302C17.024 9.30002 16.8 8.95902 16.48 8.68002C16.144 8.40102 15.728 8.26152 15.216 8.26152C14.912 8.26152 14.64 8.30802 14.384 8.41652C14.144 8.52502 13.936 8.66452 13.776 8.85052C13.632 9.02102 13.504 9.23802 13.392 9.47052ZM20.56 18.8325V17.0655C20.56 16.554 20.4 16.0425 20.096 15.5465C19.792 15.0505 19.376 14.632 18.864 14.322C18.352 13.9965 17.808 13.8415 17.232 13.8415L15.248 15.1435L13.2 13.8725C12.608 13.8725 12.048 14.0275 11.536 14.3375C11.04 14.6475 10.64 15.0505 10.352 15.531C10.064 16.027 9.92 16.5385 9.92 17.0655V18.8325L10.208 18.91C10.4 18.972 10.672 19.034 11.024 19.127C11.392 19.2045 11.776 19.282 12.208 19.3595C12.624 19.437 13.12 19.499 13.664 19.561C14.208 19.6075 14.736 19.6385 15.248 19.6385C15.728 19.6385 16.256 19.6075 16.816 19.561C17.36 19.499 17.84 19.437 18.24 19.3595C18.64 19.2975 19.04 19.2045 19.456 19.1115L20.256 18.9255C20.384 18.8945 20.48 18.8635 20.56 18.8325ZM25.6 18.9875C28.032 18.9875 30 20.894 30 23.25C30 25.606 28.032 27.5125 25.6 27.5125C24.432 27.5125 23.392 27.0475 22.608 26.319C23.1293 25.5557 23.3176 24.6235 23.1317 23.7261C22.9459 22.8287 22.4009 22.039 21.616 21.5295C22.304 20.0415 23.808 18.9875 25.6 18.9875ZM16.8 24.4125C16.8 22.9245 18.064 21.7 19.6 21.7C21.136 21.7 22.4 22.9245 22.4 24.4125C22.4 25.9005 21.136 27.125 19.6 27.125C18.064 27.125 16.8 25.9005 16.8 24.4125Z" fill="white"/>
</svg>
