<svg width="28" height="28" viewBox="0 0 28 28" fill="none" xmlns="http://www.w3.org/2000/svg">
<g clip-path="url(#clip0_577_485)">
<path d="M23.8647 4.13521L26.7977 4.72146C26.9552 4.75296 27.0847 4.86846 27.1302 5.02421C27.1532 5.09987 27.1553 5.18034 27.1362 5.25707C27.1171 5.3338 27.0775 5.40392 27.0217 5.45996L24.619 7.86446C24.3315 8.15141 23.9419 8.31253 23.5357 8.31246H21.5425L16.5375 13.3192C16.633 13.6798 16.6505 14.0565 16.589 14.4244C16.5275 14.7922 16.3883 15.1427 16.1806 15.4526C15.973 15.7624 15.7017 16.0244 15.3849 16.2212C15.0681 16.418 14.7129 16.545 14.3432 16.5937C13.9734 16.6425 13.5975 16.6119 13.2405 16.504C12.8834 16.3961 12.5535 16.2133 12.2727 15.9679C11.9918 15.7225 11.7665 15.42 11.6117 15.0807C11.4569 14.7414 11.3762 14.3729 11.375 14C11.3753 13.5973 11.4681 13.2 11.6464 12.8389C11.8246 12.4779 12.0835 12.1626 12.403 11.9175C12.7225 11.6724 13.0941 11.5041 13.4891 11.4255C13.884 11.3469 14.2917 11.3601 14.6807 11.4642L19.6875 6.45571V4.46596C19.6875 4.05996 19.8485 3.66971 20.1355 3.38271L22.54 0.978214C22.596 0.92244 22.6662 0.882898 22.7429 0.863793C22.8196 0.844688 22.9001 0.846734 22.9757 0.869714C23.1315 0.915214 23.247 1.04471 23.2785 1.20221L23.8647 4.13521Z" fill="white"/>
<path d="M3.49996 14C3.50176 15.5014 3.82554 16.985 4.44946 18.3507C5.07337 19.7164 5.98292 20.9323 7.11674 21.9166C8.25055 22.9008 9.58227 23.6305 11.0221 24.0563C12.4618 24.4821 13.9762 24.5942 15.463 24.385C16.9498 24.1758 18.3744 23.6502 19.6408 22.8436C20.9071 22.037 21.9858 20.9682 22.804 19.7092C23.6222 18.4503 24.1608 17.0306 24.3837 15.5458C24.6065 14.061 24.5083 12.5456 24.0957 11.102C24.0378 10.9334 24.0148 10.7547 24.0281 10.5768C24.0415 10.399 24.0908 10.2258 24.1733 10.0676C24.2557 9.90948 24.3694 9.76977 24.5076 9.657C24.6457 9.54423 24.8054 9.46075 24.9768 9.41165C25.1483 9.36255 25.3279 9.34885 25.5048 9.37139C25.6817 9.39393 25.8522 9.45224 26.0058 9.54276C26.1595 9.63328 26.2931 9.75412 26.3985 9.89793C26.504 10.0417 26.5791 10.2055 26.6192 10.3793C27.4181 13.1749 27.2664 16.1567 26.1878 18.8568C25.1091 21.557 23.1647 23.8226 20.6594 25.2984C18.1542 26.7741 15.2299 27.3765 12.3454 27.0109C9.46091 26.6454 6.77936 25.3326 4.72146 23.2785C2.66581 21.2211 1.35162 18.5393 0.985221 15.6541C0.618821 12.769 1.22096 9.84379 2.6971 7.33789C4.17325 4.832 6.4398 2.88728 9.14091 1.80906C11.842 0.730849 14.8247 0.580199 17.6207 1.38077C17.9536 1.47809 18.2345 1.70324 18.4019 2.00701C18.5694 2.31078 18.6097 2.66848 18.5142 3.00192C18.4187 3.33537 18.1951 3.61746 17.8923 3.78654C17.5894 3.95562 17.2319 3.99795 16.898 3.90427C15.3345 3.45568 13.6882 3.3764 12.0888 3.67268C10.4895 3.96896 8.9808 4.6327 7.68175 5.61156C6.3827 6.59043 5.32879 7.85767 4.60309 9.31337C3.8774 10.7691 3.49977 12.3735 3.49996 14Z" fill="white"/>
<path d="M8.7501 14C8.75021 14.9566 9.01146 15.8949 9.50569 16.7139C9.99992 17.5328 10.7084 18.2013 11.5546 18.6472C12.4008 19.0931 13.3528 19.2995 14.3077 19.2442C15.2626 19.1888 16.1843 18.8738 16.9734 18.333C17.7622 17.791 18.3879 17.0435 18.7827 16.1715C19.1775 15.2996 19.3264 14.3363 19.2134 13.3858C19.1828 13.1551 19.2142 12.9205 19.3044 12.706C19.3947 12.4916 19.5404 12.3051 19.7267 12.1657C19.913 12.0263 20.1331 11.939 20.3643 11.9129C20.5955 11.8869 20.8294 11.9229 21.0421 12.0173C21.2547 12.1105 21.4388 12.2584 21.5756 12.4459C21.7124 12.6334 21.797 12.8539 21.8209 13.0848C22.011 14.709 21.6908 16.352 20.9048 17.786C20.1187 19.2199 18.9057 20.3736 17.4342 21.0869C15.9627 21.8002 14.3056 22.0377 12.693 21.7664C11.0804 21.4952 9.59223 20.7286 8.43504 19.5732C7.27785 18.4178 6.50906 16.9307 6.23536 15.3185C5.96166 13.7063 6.19664 12.0489 6.90768 10.5763C7.61872 9.10374 8.77055 7.88902 10.2033 7.10077C11.636 6.31253 13.2786 5.98985 14.9031 6.17754C15.077 6.19367 15.246 6.24437 15.4001 6.32666C15.5542 6.40895 15.6903 6.52117 15.8005 6.65675C15.9106 6.79232 15.9926 6.94853 16.0416 7.1162C16.0906 7.28387 16.1057 7.45964 16.0859 7.6332C16.0661 7.80677 16.0118 7.97463 15.9263 8.12696C15.8408 8.27928 15.7257 8.413 15.5879 8.52028C15.45 8.62755 15.2921 8.70623 15.1234 8.75169C14.9548 8.79716 14.7787 8.80849 14.6056 8.78503C13.87 8.69963 13.1247 8.7708 12.4185 8.9939C11.7124 9.21699 11.0614 9.58694 10.5084 10.0795C9.9554 10.572 9.51284 11.1759 9.2098 11.8516C8.90676 12.5273 8.7501 13.2595 8.7501 14Z" fill="white"/>
</g>
<defs>
<clipPath id="clip0_577_485">
<rect width="28" height="28" fill="white"/>
</clipPath>
</defs>
</svg>
