<svg width="24" height="25" viewBox="0 0 24 25" fill="none" xmlns="http://www.w3.org/2000/svg">
<g clip-path="url(#clip0_542_122)">
<path d="M7.00561 2.02746C6.39467 2.02746 5.80875 2.28225 5.37676 2.73577C4.94476 3.18929 4.70206 3.8044 4.70206 4.44578V14.1191C4.70206 14.7604 4.94476 15.3755 5.37676 15.8291C5.80875 16.2826 6.39467 16.5374 7.00561 16.5374H16.2198C16.8307 16.5374 17.4166 16.2826 17.8486 15.8291C18.2806 15.3755 18.5233 14.7604 18.5233 14.1191V11.0962C18.5233 10.9358 18.584 10.782 18.692 10.6687C18.8 10.5553 18.9465 10.4916 19.0992 10.4916C19.2519 10.4916 19.3984 10.5553 19.5064 10.6687C19.6144 10.782 19.6751 10.9358 19.6751 11.0962V14.1191C19.6751 15.0811 19.311 16.0038 18.663 16.6841C18.0151 17.3644 17.1362 17.7465 16.2198 17.7465H7.00561C6.0892 17.7465 5.21033 17.3644 4.56233 16.6841C3.91433 16.0038 3.55029 15.0811 3.55029 14.1191V4.44578C3.55029 3.48371 3.91433 2.56105 4.56233 1.88076C5.21033 1.20048 6.0892 0.818298 7.00561 0.818298H9.88503C10.0378 0.818298 10.1842 0.881995 10.2922 0.995376C10.4002 1.10876 10.4609 1.26253 10.4609 1.42288C10.4609 1.58322 10.4002 1.737 10.2922 1.85038C10.1842 1.96376 10.0378 2.02746 9.88503 2.02746H7.00561ZM12.7645 1.42288C12.7645 1.26253 12.8251 1.10876 12.9331 0.995376C13.0411 0.881995 13.1876 0.818298 13.3403 0.818298H19.0992C19.2519 0.818298 19.3984 0.881995 19.5064 0.995376C19.6144 1.10876 19.6751 1.26253 19.6751 1.42288V7.46868C19.6751 7.62902 19.6144 7.7828 19.5064 7.89618C19.3984 8.00956 19.2519 8.07326 19.0992 8.07326C18.9465 8.07326 18.8 8.00956 18.692 7.89618C18.584 7.7828 18.5233 7.62902 18.5233 7.46868V2.88233L13.7481 7.89672C13.6399 8.01025 13.4933 8.07402 13.3403 8.07402C13.1874 8.07402 13.0408 8.01025 12.9326 7.89672C12.8245 7.7832 12.7637 7.62923 12.7637 7.46868C12.7637 7.30813 12.8245 7.15416 12.9326 7.04064L17.709 2.02746H13.3403C13.1876 2.02746 13.0411 1.96376 12.9331 1.85038C12.8251 1.737 12.7645 1.58322 12.7645 1.42288Z" fill="white"/>
</g>
<defs>
<clipPath id="clip0_542_122">
<rect width="23.0354" height="24.1832" fill="white" transform="translate(0.0949707 0.488556)"/>
</clipPath>
</defs>
</svg>
